<svg height="24" viewBox="0 0 128 128" width="24" xmlns="http://www.w3.org/2000/svg" ><path d="M127.428 57.1L65.178.456a1.75 1.75 0 00-2.356 0L.572 57.1A1.751 1.751 0 00.4 59.5l6.214 7.565a1.751 1.751 0 002.531.184l6.108-5.558v11.5a7.624 7.624 0 000 14.951v13.285a7.624 7.624 0 000 14.95v9.873A1.751 1.751 0 0017 128h94a1.751 1.751 0 001.75-1.75v-9.873a7.624 7.624 0 000-14.95V88.142a7.624 7.624 0 000-14.951v-11.5l6.108 5.558a1.753 1.753 0 001.178.456h.127a1.752 1.752 0 001.226-.635l6.211-7.57a1.75 1.75 0 00-.172-2.4zM27.5 124.5h-8.75v-7.973h8.75zm0-11.473H16.75a4.125 4.125 0 010-8.25H27.5zm0-11.75h-8.75V88.292h8.75zm0-16.485H16.75a4.125 4.125 0 010-8.25H27.5zm29.75 1.75V124.5H31V76.542h26.25zm-28-13.5h-10.5V60.056h90.5v12.986zm68.79-24.736l9.068 8.25H20.894l9.068-8.25zm-64.23-3.5L64 17.335l30.192 27.471zm66.69 43.486h8.748v12.985H100.5zm-14.873 4.742V76.542H97v16.492zM97 96.534v16.493H85.627V96.534zm-26.25-3.5V76.542h11.377v16.492zm11.375 3.5v16.493H70.752V96.534zm-21.379 4.743V88.292h6.5v12.985zm6.5 3.5v8.25h-6.5v-8.25zm-6.5-19.985v-8.25h6.5v8.25zm48.5 39.708h-48.5v-7.973h48.5zm6.125-15.6a4.13 4.13 0 01-4.125 4.125H100.5v-8.25h10.75a4.13 4.13 0 014.125 4.125zm0-28.235a4.13 4.13 0 01-4.125 4.125H100.5v-8.25h10.75a4.13 4.13 0 014.125 4.127zm4.477-17.246l-7.673-6.981-12.281-11.177-34.716-31.587a1.752 1.752 0 00-2.356 0L28.108 45.26 15.822 56.439l-7.674 6.982-3.99-4.857L64 4.116l59.842 54.448z"/><path d="M51 105.909a1.75 1.75 0 001.75-1.75v-7.687a1.75 1.75 0 00-3.5 0v7.687a1.749 1.749 0 001.75 1.75z"/></svg>
