<svg height="24" width="24" xmlns="http://www.w3.org/2000/svg" viewBox="0 0 512 512"><path d="M496.79 140.036h-45V49.234C451.79 22.087 429.703 0 402.555 0c-13.295 0-25.367 5.306-34.235 13.9C359.452 5.306 347.38 0 334.085 0s-25.367 5.306-34.235 13.9C290.983 5.306 278.911 0 265.616 0s-25.367 5.306-34.235 13.9C222.513 5.306 210.441 0 197.146 0c-27.148 0-49.234 22.087-49.234 49.234v90.802h-22.743a14.99 14.99 0 00-5.535 1.059l-29.497 11.71V15c0-8.284-6.716-15-15-15H15.21c-8.284 0-15 6.716-15 15v482c0 8.284 6.716 15 15 15h59.926c8.284 0 15-6.716 15-15V217.194l29.497 11.71a15.007 15.007 0 005.535 1.059h22.743v13.866c0 44.089 21.247 83.307 54.037 107.96V497c0 8.284 6.716 15 15 15h165.805c8.284 0 15-6.716 15-15V351.789c32.79-24.653 54.037-63.871 54.037-107.96v-13.866h45c8.284 0 15-6.716 15-15v-59.927c0-8.284-6.716-15-15-15zM402.555 30c10.606 0 19.235 8.629 19.235 19.234v80.04c-7.302-3.766-15.497-5.915-24.089-5.915h-14.38V49.234C383.32 38.629 391.949 30 402.555 30zm-68.47 0c10.606 0 19.234 8.629 19.234 19.234v74.125H314.85V49.234C314.851 38.629 323.479 30 334.085 30zm-68.469 0c10.606 0 19.235 8.629 19.235 19.234v74.125h-38.47V49.234c0-10.605 8.629-19.234 19.235-19.234zm-87.704 19.234c0-10.606 8.629-19.234 19.235-19.234s19.234 8.629 19.234 19.234v90.802h-38.469zM60.137 482H30.21V30h29.926v452zm30.208-297l37.692-14.963h92.786a87.618 87.618 0 0017.106 29.927H128.037zm87.567 58.829v-13.866h121.472c1.522.079 3.053.12 4.594.12h9.631c-7.678 16.084-11.761 33.817-11.761 51.841 0 24.092 7.081 47.157 20.234 66.772-1.754.088-3.518.133-5.293.133H282.91c-57.896 0-104.998-47.102-104.998-105zM367.753 482H231.948V368.832c15.734 6.438 32.939 9.997 50.963 9.997h33.879c13.42 0 26.385-1.978 38.629-5.641.423-.106.841-.232 1.254-.374a134.157 134.157 0 0011.08-3.983zm54.037-238.171c0 44.572-27.918 82.74-67.183 97.951-14.696-16.525-22.758-37.604-22.758-59.856 0-20.874 7.294-41.226 20.538-57.305a15.001 15.001 0 00-11.578-24.537l-40.359-.12c-26.46-1.608-48.157-21.148-53.039-46.604H397.7c12.454 0 23.424 10.738 24.06 23.25-.066.877-.055 1.743.029 2.594v64.627zm60-43.866h-30s.094-22.879-.028-23.92a52.55 52.55 0 00-.542-6.007h30.57z" fill="currentColor"/><path d="M162.912 367.841c-31.569 0-57.252 25.683-57.252 57.252 0 8.284 6.716 15 15 15s15-6.716 15-15c0-15.026 12.225-27.252 27.252-27.252 8.284 0 15-6.716 15-15s-6.716-15-15-15zM115.31 330.1c1.916 6.005 7.279 10.287 13.61 10.629 6.264.338 12.186-3.476 14.59-9.239 2.405-5.766.871-12.67-3.779-16.856-4.655-4.191-11.607-5.078-17.141-2.114-6.223 3.332-9.339 10.821-7.28 17.58z" fill="currentColor"/></svg>
