<?xml version="1.0" standalone="no"?>
<!DOCTYPE svg PUBLIC "-//W3C//DTD SVG 20010904//EN"
 "http://www.w3.org/TR/2001/REC-SVG-20010904/DTD/svg10.dtd">
<svg version="1.0" xmlns="http://www.w3.org/2000/svg"
 width="400.000000pt" height="400.000000pt" viewBox="0 0 400.000000 400.000000"
 preserveAspectRatio="xMidYMid meet">
<metadata>
Created by potrace 1.11, written by Peter Selinger 2001-2013
</metadata>
<g transform="translate(0.000000,400.000000) scale(0.100000,-0.100000)"
fill="#000000" stroke="none">
<path d="M1806 3664 c-112 -17 -252 -55 -344 -93 -278 -115 -482 -405 -482
-684 0 -99 44 -409 71 -501 26 -89 32 -82 9 11 -11 40 -28 159 -40 265 -29
260 -20 344 51 495 76 161 212 300 362 372 187 91 485 149 707 138 69 -3 91
-2 65 4 -62 12 -300 9 -399 -7z"/>
<path d="M2270 3650 c34 -11 60 -11 35 0 -11 5 -29 8 -40 8 -16 0 -15 -2 5 -8z"/>
<path d="M2597 3516 c217 -68 354 -384 355 -816 0 -220 -33 -387 -94 -472 -23
-32 -25 -38 -9 -23 81 72 126 255 126 510 -1 406 -131 720 -328 793 -32 12
-65 22 -75 21 -9 0 2 -6 25 -13z"/>
<path d="M2148 3252 c-16 -10 -28 -21 -28 -27 0 -5 -12 -20 -27 -33 -16 -13
-19 -18 -7 -10 32 21 109 88 98 87 -5 0 -21 -8 -36 -17z"/>
<path d="M2434 3248 c-10 -11 -46 -38 -78 -60 -33 -21 -55 -38 -51 -38 15 0
100 59 130 90 16 16 26 30 23 30 -3 0 -13 -10 -24 -22z"/>
<path d="M2265 3194 c-44 -24 -77 -44 -72 -44 13 0 145 69 152 80 8 13 12 15
-80 -36z"/>
<path d="M2065 3220 c-13 -5 -14 -9 -5 -9 8 0 24 4 35 9 13 5 14 9 5 9 -8 0
-24 -4 -35 -9z"/>
<path d="M1930 3184 c-272 -78 -498 -118 -601 -109 l-76 6 -36 -40 c-58 -64
-69 -118 -74 -341 -2 -107 0 -262 5 -345 9 -138 9 -126 8 150 0 256 2 312 18
380 20 89 47 150 74 163 9 5 55 10 102 10 127 0 408 57 620 126 96 31 71 31
-40 0z"/>
<path d="M2130 3179 c-67 -29 -72 -38 -9 -16 30 10 94 47 79 45 -3 0 -34 -13
-70 -29z"/>
<path d="M2603 3137 c40 -37 76 -61 117 -76 49 -18 61 -27 66 -49 3 -15 15
-54 27 -87 18 -53 21 -91 26 -345 l6 -285 8 190 c9 215 -2 360 -33 447 -11 32
-20 66 -20 77 0 24 -30 46 -90 66 -26 9 -73 38 -106 66 l-59 51 58 -55z"/>
<path d="M2027 3154 c-16 -9 -27 -18 -24 -21 3 -2 14 0 25 6 11 6 21 8 24 6 3
-3 5 2 5 10 0 8 -1 15 -1 15 -1 -1 -14 -8 -29 -16z"/>
<path d="M2128 3133 c7 -3 16 -2 19 1 4 3 -2 6 -13 5 -11 0 -14 -3 -6 -6z"/>
<path d="M1417 2526 c-38 -14 -109 -58 -102 -64 2 -2 18 5 37 14 52 29 144 24
263 -14 127 -39 206 -50 224 -29 20 25 -22 44 -170 77 -148 33 -196 36 -252
16z"/>
<path d="M2326 2510 c-144 -33 -185 -52 -165 -77 18 -20 95 -11 222 28 156 48
181 48 292 4 15 -6 14 -4 -5 12 -84 68 -161 75 -344 33z"/>
<path d="M1448 2389 c-71 -20 -85 -72 -36 -134 37 -47 94 -69 178 -68 41 1 89
7 105 12 28 10 27 10 -10 5 l-40 -6 20 24 20 23 -26 -22 c-30 -27 -109 -31
-162 -9 -38 15 -87 69 -87 95 0 21 34 38 90 47 l40 7 -15 -29 c-8 -16 -15 -40
-14 -54 1 -26 4 -22 13 21 5 22 10 25 37 21 22 -3 27 -8 20 -15 -28 -28 1 -74
39 -62 23 7 26 35 8 65 -36 58 63 38 129 -26 36 -34 43 -37 43 -21 0 30 -71
92 -127 111 -60 21 -176 29 -225 15z"/>
<path d="M2366 2389 c-62 -15 -135 -60 -157 -96 -26 -42 -17 -56 12 -19 18 23
67 56 84 56 3 0 6 -19 6 -42 1 -29 3 -34 6 -16 3 19 13 30 34 37 27 9 28 9 19
-9 -13 -24 -13 -26 6 -44 18 -19 39 -21 28 -4 -5 8 -2 9 10 5 24 -9 32 18 13
46 -24 36 -7 51 55 51 99 -2 127 -44 68 -102 -43 -44 -88 -55 -192 -50 -49 3
-87 4 -86 2 2 -1 34 -8 72 -14 51 -8 83 -8 123 0 120 25 189 151 105 189 -36
17 -157 23 -206 10z"/>
<path d="M2482 2280 c0 -14 2 -19 5 -12 2 6 2 18 0 25 -3 6 -5 1 -5 -13z"/>
<path d="M1682 2270 c0 -14 2 -19 5 -12 2 6 2 18 0 25 -3 6 -5 1 -5 -13z"/>
<path d="M2320 2236 c0 -2 8 -10 18 -17 15 -13 16 -12 3 4 -13 16 -21 21 -21
13z"/>
<path d="M1535 2220 c3 -5 11 -10 16 -10 6 0 7 5 4 10 -3 6 -11 10 -16 10 -6
0 -7 -4 -4 -10z"/>
<path d="M2450 2220 c-9 -6 -10 -10 -3 -10 6 0 15 5 18 10 8 12 4 12 -15 0z"/>
<path d="M1105 833 c-392 -104 -506 -153 -616 -263 -117 -118 -168 -257 -169
-462 l0 -108 1676 0 1677 0 -6 133 c-4 72 -13 164 -22 202 -42 196 -159 314
-385 392 -100 34 -291 76 -407 89 l-63 7 1 -169 c0 -93 4 -223 8 -289 4 -66 6
-122 4 -125 -9 -10 -153 74 -268 156 -66 47 -137 95 -158 105 -37 20 -38 20
-105 -2 -88 -27 -267 -37 -363 -19 -91 17 -124 7 -215 -68 -41 -34 -101 -71
-140 -87 -38 -16 -114 -48 -169 -73 -55 -24 -105 -46 -112 -48 -8 -4 -12 52
-16 213 -4 205 -20 390 -36 422 -11 21 -17 21 -116 -6z"/>
</g>
</svg>
