<?xml version="1.0" standalone="no"?>
<!DOCTYPE svg PUBLIC "-//W3C//DTD SVG 20010904//EN"
 "http://www.w3.org/TR/2001/REC-SVG-20010904/DTD/svg10.dtd">
<svg version="1.0" xmlns="http://www.w3.org/2000/svg"
 width="71.000000pt" height="111.000000pt" viewBox="0 0 71.000000 111.000000"
 preserveAspectRatio="xMidYMid meet">
<metadata>
Created by potrace 1.10, written by Peter Selinger 2001-2011
</metadata>
<g transform="translate(0.000000,111.000000) scale(0.100000,-0.100000)"
fill="#000000" stroke="none">
<path d="M296 1001 c-31 -54 -56 -101 -56 -104 0 -3 25 -47 55 -98 l55 -94
-114 -3 -114 -3 -56 -97 c-31 -54 -56 -101 -56 -105 0 -4 52 -7 115 -7 l114 0
42 73 c23 39 49 85 59 100 l17 29 58 -101 59 -101 113 0 c75 0 113 4 113 11 0
6 -25 53 -55 105 l-56 94 -114 0 -114 0 54 94 c30 52 55 99 55 105 0 10 -109
201 -115 201 -2 0 -28 -45 -59 -99z"/>
<path d="M516 295 c-9 -9 -17 -11 -21 -5 -9 15 -65 12 -65 -2 0 -10 -2 -10 -8
-2 -4 8 -40 12 -94 12 -72 0 -90 -3 -98 -16 -9 -16 -9 -16 -10 1 0 22 -16 22
-29 0 -9 -17 -10 -17 -16 0 -4 9 -13 17 -21 17 -10 0 -14 -14 -14 -50 0 -27 5
-50 10 -50 6 0 10 12 10 28 0 21 2 24 10 12 9 -13 11 -13 20 0 8 12 10 9 10
-12 0 -16 5 -28 10 -28 6 0 10 7 10 16 0 14 1 14 16 0 24 -25 53 -20 65 11 5
14 8 32 5 40 -3 7 -1 13 4 13 6 0 10 -18 10 -40 0 -54 20 -51 21 3 1 40 1 40
8 11 4 -17 11 -36 15 -42 9 -15 43 -16 51 -2 5 8 11 7 21 -1 12 -10 16 -8 21
10 5 21 6 21 19 2 13 -17 40 -21 87 -12 15 3 6 41 -13 51 -11 6 -20 16 -20 22
0 9 3 9 12 0 14 -14 28 -16 28 -2 0 5 -9 14 -19 20 -15 7 -23 6 -35 -5z"/>
</g>
</svg>
